<svg xmlns="http://www.w3.org/2000/svg" xmlns:xlink="http://www.w3.org/1999/xlink" version="1.1" width="1000" height="1000" viewBox="0 0 1000 1000" xml:space="preserve">
<desc>Created with Fabric.js 3.5.0</desc>
<defs>
</defs>

<g transform="matrix(-0.974 0 0 -0.974 500.0122 500.0122)" id="456190">
<g style="" vector-effect="non-scaling-stroke">
		<g transform="matrix(1 0 0 1 6.0279 25.8379)" id="boundary">
<path style="stroke: rgb(0,0,0); stroke-width: 35; stroke-dasharray: none; stroke-linecap: round; stroke-dashoffset: 0; stroke-linejoin: round; stroke-miterlimit: 4; is-custom-font: none; font-file-url: none; fill: none; fill-rule: evenodd; opacity: 1;" transform=" translate(-472.6945, -492.5045)" d="M 690.605 766.18 c 88.769 -90.71 140.98 -241.722 162.04 -453.666 c -110.451 239.661 -180.878 345.902 -228.256 364.75 c 45.241 -116.612 78.78 -291.617 87.425 -525.358 c -69.294 207.629 -120.577 351.382 -164.138 431.832 c -26.514 -109.699 -38.22 -296.9 -66.014 -478.004 c -34.791 188.524 -47.636 382.449 -77.369 488.623 c -41.408 -77.705 -87.892 -224.036 -150.941 -439.25 c -0.989 223.42 22.967 393.006 60.406 508.846 c -48.155 -34.212 -117.283 -142.337 -221.014 -357.238 c 11.588 214.478 62.838 367.984 150.213 459.816 m 8.033 46.627 l -22 -2 v 68.117 h 469.834 v -68.117 l -16.786 2" stroke-linecap="round"/>
</g>
		<g transform="matrix(1 0 0 1 15.9017 -22.9126)" id="back-hair">
<linearGradient id="SVGID_4" gradientUnits="userSpaceOnUse" gradientTransform="matrix(1.0787 0 0 1.0787 -2.308 -9.803)" x1="285.639" y1="287.12" x2="466.667" y2="587.12">
<stop offset="0%" style="stop-color:rgb(127,137,155);stop-opacity: 1"/>
<stop offset="100%" style="stop-color:rgb(28,28,47);stop-opacity: 1"/>
</linearGradient>
<path style="stroke: rgb(0,0,0); stroke-width: 20; stroke-dasharray: none; stroke-linecap: round; stroke-dashoffset: 0; stroke-linejoin: round; stroke-miterlimit: 4; is-custom-font: none; font-file-url: none; fill: url(#SVGID_4); fill-rule: evenodd; opacity: 1;" transform=" translate(-482.5683, -443.754)" d="M 711.814 151.906 c -225.866 676.77 -260.764 678.027 -458.462 3.202 c -1.216 275.009 35.357 468.451 88.355 580.494 h 256.806 c 58.083 -112.565 103.074 -307.205 113.301 -583.696 Z" stroke-linecap="round"/>
</g>
		<g transform="matrix(1 0 0 1 6.0279 -27.1151)" id="front-hair">
<linearGradient id="SVGID_5" gradientUnits="userSpaceOnUse" gradientTransform="matrix(1.0787 0 0 1.0787 -2.308 -9.803)" x1="166.781" y1="239.891" x2="718.885" y2="746.557">
<stop offset="0%" style="stop-color:rgb(127,137,155);stop-opacity: 1"/>
<stop offset="100%" style="stop-color:rgb(28,28,47);stop-opacity: 1"/>
</linearGradient>
<path style="stroke: rgb(0,0,0); stroke-width: 20; stroke-dasharray: none; stroke-linecap: round; stroke-dashoffset: 0; stroke-linejoin: round; stroke-miterlimit: 4; is-custom-font: none; font-file-url: none; fill: url(#SVGID_5); fill-rule: evenodd; opacity: 1;" transform=" translate(-472.6945, -439.5515)" d="M 481.662 105.734 c -81.968 444.154 -41.752 920.212 -388.918 200.981 c 11.881 219.895 65.45 375.697 156.9 466.654 h 433.718 c 93.18 -89.82 147.656 -243.21 169.283 -460.855 c -331.536 719.381 -302.754 237.784 -370.983 -206.78 Z" stroke-linecap="round"/>
</g>
		<g transform="matrix(1 0 0 1 -2.7591 377.5506)" id="bottom">
<linearGradient id="SVGID_6" gradientUnits="userSpaceOnUse" gradientTransform="matrix(1.0787 0 0 1.0787 -0.308 -7.803)" x1="199" y1="789.833" x2="661.667" y2="789.833">
<stop offset="0%" style="stop-color:rgb(127,137,155);stop-opacity: 1"/>
<stop offset="100%" style="stop-color:rgb(28,28,47);stop-opacity: 1"/>
</linearGradient>
<path style="stroke: rgb(0,0,0); stroke-width: 20; stroke-dasharray: none; stroke-linecap: round; stroke-dashoffset: 0; stroke-linejoin: round; stroke-miterlimit: 4; is-custom-font: none; font-file-url: none; fill: url(#SVGID_6); fill-rule: evenodd; opacity: 1;" transform=" translate(-463.9075, -844.217)" d="M 228.99 809.158 h 469.835 v 70.118 H 228.99 z" stroke-linecap="round"/>
</g>
</g>
</g>
</svg>