<svg xmlns="http://www.w3.org/2000/svg" xmlns:xlink="http://www.w3.org/1999/xlink" version="1.1" width="1000" height="1000" viewBox="0 0 1000 1000" xml:space="preserve">
<desc>Created with Fabric.js 3.5.0</desc>
<defs>
</defs>

<g transform="matrix(-0.4883 0 0 -0.4883 499.9808 499.9808)" id="775411">
<g style="" vector-effect="non-scaling-stroke">
		<g transform="matrix(1 0 0 1 -0.05 490.15)">
<path style="stroke: none; stroke-width: 1; stroke-dasharray: none; stroke-linecap: butt; stroke-dashoffset: 0; stroke-linejoin: miter; stroke-miterlimit: 4; is-custom-font: none; font-file-url: none; fill: rgb(249,249,249); fill-rule: nonzero; opacity: 1;" transform=" translate(-1023.95, -1514.15)" d="m 520 1801.8 l 41.5 -448.7 l 474 -128.9 l 458 133.5 l 34.4 446.4 z" stroke-linecap="round"/>
</g>
		<g transform="matrix(1 0 0 1 0 38.8062)">
<path style="stroke: none; stroke-width: 1; stroke-dasharray: none; stroke-linecap: butt; stroke-dashoffset: 0; stroke-linejoin: miter; stroke-miterlimit: 4; is-custom-font: none; font-file-url: none; fill: rgb(16,16,16); fill-rule: nonzero; opacity: 1;" transform=" translate(-1024, -1062.8061)" d="M 590 1519 q 4 72 -15 158 l 134 -86 z m 434 324 H 441 q 114 -231 57.5 -456.5 T 296 937 q -12 2 -19 2 q -54 0 -92.5 -38.5 T 146 808 t 38.5 -92.5 T 277 677 t 92.5 38.5 T 408 808 q 0 20 -6 38 q -4 14 -15 33 l 196 139 l 100 -486 q -64 -31 -72 -103 q -5 -44 29 -91 t 88 -53 q 54 -5 96 29 t 48 88 q 7 68 -46 114 l 198 412 l 198 -412 q -54 -46 -46 -114 q 6 -54 48 -88 t 96 -29 q 54 6 87.5 53 t 29.5 91 q -9 72 -72 103 l 100 486 l 196 -139 q -12 -19 -15 -33 q -6 -18 -6 -38 q 0 -54 38.5 -92.5 T 1771 677 t 92.5 38.5 T 1902 808 t -38.5 92.5 T 1771 939 q -7 0 -19 -2 q -147 224 -203 449.5 t 58 456.5 z m 0 -450 q 109 0 222 28.5 t 213 67.5 q 2 -41 11 -89 q -108 -42 -221.5 -68 t -224.5 -26 t -225 26 t -221 68 q 8 48 11 89 q 99 -39 212 -67.5 t 223 -28.5 z m 0 376 h 478 q -15 -34 -24 -73 H 570 q -10 39 -24 73 z m 434 -250 l -119 72 l 134 86 q -20 -86 -15 -158 z m -573 47 l 139 87 l 139 -84 l -139 -86 z" stroke-linecap="round"/>
</g>
</g>
</g>
</svg>