<svg xmlns="http://www.w3.org/2000/svg" xmlns:xlink="http://www.w3.org/1999/xlink" version="1.1" width="1000" height="1000" viewBox="0 0 1000 1000" xml:space="preserve">
<desc>Created with Fabric.js 3.5.0</desc>
<defs>
</defs>
<g transform="matrix(-0.4883 0 0 -0.4883 499.9808 499.9808)" id="989998">
<g style="" vector-effect="non-scaling-stroke">
		<g transform="matrix(1 0 0 1 6.9 39.2)">
<path style="stroke: none; stroke-width: 1; stroke-dasharray: none; stroke-linecap: butt; stroke-dashoffset: 0; stroke-linejoin: miter; stroke-miterlimit: 4; is-custom-font: none; font-file-url: none; fill: rgb(249,249,249); fill-rule: nonzero; opacity: 1;" transform=" translate(-1030.9, -1063.2)" d="m 508.5 1815.6 l 48.4 -356.7 l -216.3 -554.6 l -135.8 -20.7 l -16.1 -126.5 l 112.7 -43.8 l 78.3 73.7 l -18.4 99 l 246.2 197.8 l 112.8 -568.3 L 635 428 l 78.3 -108 l 112.8 43.7 l -23 161 l 223.2 474 l 244 -490 l -66.8 -105.9 l 92 -92 l 105.9 73.6 L 1337 534 l 103.5 529.2 l 260 -161 l -16 -142.7 l 131 -46 l 57.6 131.1 l -207 103.6 l -175 529.2 l 48.4 308.4 z" stroke-linecap="round"/>
</g>
		<g transform="matrix(1 0 0 1 0 38.8062)">
<path style="stroke: none; stroke-width: 1; stroke-dasharray: none; stroke-linecap: butt; stroke-dashoffset: 0; stroke-linejoin: miter; stroke-miterlimit: 4; is-custom-font: none; font-file-url: none; fill: rgb(16,16,16); fill-rule: nonzero; opacity: 1;" transform=" translate(-1024, -1062.8061)" d="M 1024 1769 h 478 q -53 -130 -43 -280 q -100 -39 -213 -67.5 t -222 -28.5 q -110 0 -223 28.5 T 589 1489 q 9 150 -43 280 z m 0 -450 q 111 0 223.5 26.5 T 1468 1413 q 17 -105 60.5 -212.5 T 1634 988 l -220 155 l -123 -601 l -267 555 l -267 -555 l -123 601 l -220 -155 q 61 105 104.5 212.5 T 580 1413 q 108 -41 220.5 -67.5 T 1024 1319 z m 0 524 H 441 q 114 -231 57.5 -456.5 T 296 937 q -12 2 -19 2 q -54 0 -92.5 -38.5 T 146 808 t 38.5 -92.5 T 277 677 t 92.5 38.5 T 408 808 q 0 20 -6 38 q -4 14 -15 33 l 196 139 l 100 -486 q -64 -31 -72 -103 q -5 -44 29 -91 t 88 -53 q 54 -5 96 29 t 48 88 q 7 68 -46 114 l 198 412 l 198 -412 q -54 -46 -46 -114 q 6 -54 48 -88 t 96 -29 q 54 6 87.5 53 t 29.5 91 q -9 72 -72 103 l 100 486 l 196 -139 q -12 -19 -15 -33 q -6 -18 -6 -38 q 0 -54 38.5 -92.5 T 1771 677 t 92.5 38.5 T 1902 808 t -38.5 92.5 T 1771 939 q -7 0 -19 -2 q -147 224 -203 449.5 t 58 456.5 z M 276 746 q -62 0 -62 62 t 62 62 q 63 0 63 -62 t -63 -62 z m 466 -394 q -62 0 -62 62 t 62 62 t 62 -62 t -62 -62 z M 590 1519 l 119 72 l -134 86 q 19 -86 15 -158 z m 1182 -773 q -63 0 -63 62 t 63 62 q 62 0 62 -62 t -62 -62 z m -466 -394 q -62 0 -62 62 t 62 62 t 62 -62 t -62 -62 z m 152 1167 l -119 72 l 134 86 q -20 -86 -15 -158 z m -573 47 l 139 -83 l 139 86 l -139 84 z" stroke-linecap="round"/>
</g>
</g>
</g>
</svg>