<svg xmlns="http://www.w3.org/2000/svg" xmlns:xlink="http://www.w3.org/1999/xlink" version="1.1" width="1000" height="1000" viewBox="0 0 1000 1000" xml:space="preserve">
<desc>Created with Fabric.js 3.5.0</desc>
<defs>
</defs>
<g transform="matrix(-1.7756 0 0 -1.7756 499.9919 499.9919)" id="14531">
<g style="" vector-effect="non-scaling-stroke">
		<g transform="matrix(1 0 0 1 0.25 56.75)">
<path style="stroke: none; stroke-width: 1; stroke-dasharray: none; stroke-linecap: butt; stroke-dashoffset: 0; stroke-linejoin: miter; stroke-miterlimit: 4; is-custom-font: none; font-file-url: none; fill: rgb(0,23,60); fill-rule: nonzero; opacity: 1;" transform=" translate(-256.25, -312.75)" d="M 255.6 138.5 c -101.1 0 -183.4 71.8 -183.4 160 c 0 38.7 3 82.6 39.6 114 c 14 12 35.3 18.8 52.4 24.3 l 6.3 2 c 1 0.4 1.5 0.6 2.8 7.5 a 42.3 42.3 0 0 0 13.8 26.8 c 3.8 3.3 15.4 13.4 69 13.9 h 0.3 c 53.6 -0.5 65.2 -10.6 69 -14 a 42.3 42.3 0 0 0 13.8 -26.7 c 1.3 -7 1.8 -7 2.8 -7.4 l 6.3 -2 c 17.1 -5.6 38.5 -12.4 52.4 -24.4 c 36.5 -31.4 39.6 -75.3 39.6 -114 c 0 -88.2 -82.9 -160 -184.7 -160 Z" stroke-linecap="round"/>
</g>
		<g transform="matrix(1 0 0 1 -0.5 127.6223)">
<path style="stroke: none; stroke-width: 1; stroke-dasharray: none; stroke-linecap: butt; stroke-dashoffset: 0; stroke-linejoin: miter; stroke-miterlimit: 4; is-custom-font: none; font-file-url: none; fill: rgb(255,56,92); fill-rule: nonzero; opacity: 1;" transform=" translate(-255.5, -383.6223)" d="M 179.5 335.2 c -22.5 0 -36.5 10 -36.5 26 c 0 18.1 16.7 33.3 36.5 33.3 c 20.8 0 36.5 -12.7 36.5 -29.6 c 0 -17 -15.7 -29.7 -36.5 -29.7 Z m 152 0 c -20.8 0 -36.5 12.8 -36.5 29.7 s 15.7 29.6 36.5 29.6 c 19.8 0 36.5 -15.2 36.5 -33.2 c 0 -16.1 -14 -26 -36.5 -26 Z m -75 47.1 c 4.7 -0.2 9 2.4 10.2 6.4 l 10.9 32 c 1.6 4.6 -1.5 9.6 -6.9 11 l -2.8 0.3 c -3.7 0 -7.1 -1.7 -8.9 -4.5 c -2 3.2 -6.3 5.1 -10.7 4.4 c -5.5 -1 -9.2 -5.6 -8.1 -10.4 l 6.9 -32 c 0.8 -4 4.7 -7 9.4 -7.2 Z" stroke-linecap="round"/>
</g>
		<g transform="matrix(1 0 0 1 -0.5005 -94.2496)">
<path style="stroke: none; stroke-width: 1; stroke-dasharray: none; stroke-linecap: butt; stroke-dashoffset: 0; stroke-linejoin: miter; stroke-miterlimit: 4; is-custom-font: none; font-file-url: none; fill: rgb(0,23,60); fill-rule: nonzero; opacity: 1;" transform=" translate(-255.4995, -161.7503)" d="M 273.7 94.3 a 37.5 37.5 0 1 0 -34 1.2 c -5.5 155.3 -40.4 87.4 -64.6 10.3 a 37.3 37.3 0 0 0 8.9 -24.3 a 37.5 37.5 0 1 0 -44.5 36.9 c 22.3 129.9 -17.6 121.4 -51.3 58.2 a 37.3 37.3 0 0 0 5.8 -20.1 A 37.5 37.5 0 1 0 57.4 194 c 9 33.5 14 81 15.6 105.5 c 0 -12.5 82.4 -22.6 184 -22.6 s 184 10.1 184 22.6 c 1 -24.4 5 -72 13.7 -105.5 a 37.5 37.5 0 1 0 -37.7 -37.5 a 37.3 37.3 0 0 0 5.7 19.9 c -35.4 59.5 -75.8 64.8 -48.4 -58.7 A 37.5 37.5 0 1 0 339 109 c -24.8 77.4 -60 143.5 -65.3 -14.7 Z" stroke-linecap="round"/>
</g>
		<g transform="matrix(1 0 0 1 -0.5 -99.95)">
<path style="stroke: none; stroke-width: 1; stroke-dasharray: none; stroke-linecap: butt; stroke-dashoffset: 0; stroke-linejoin: miter; stroke-miterlimit: 4; is-custom-font: none; font-file-url: none; fill: rgb(255,156,174); fill-rule: nonzero; opacity: 1;" transform=" translate(-255.5, -156.05)" d="M 255.5 80 a 18.5 18.5 0 1 0 0 -37 a 18.5 18.5 0 0 0 0 37 Z M 165 81.5 a 18.5 18.5 0 1 1 -37 0 a 18.5 18.5 0 0 1 37 0 Z M 364.5 100 a 18.5 18.5 0 1 0 0 -37 a 18.5 18.5 0 0 0 0 37 Z M 473 156.5 a 18.5 18.5 0 1 1 -37 0 a 18.5 18.5 0 0 1 37 0 Z m -398 0 a 18.5 18.5 0 1 1 -37 0 a 18.5 18.5 0 0 1 37 0 Z m 350 112.4 c 2.2 -25 6 -55.9 12.4 -80.5 a 158.4 158.4 0 0 1 -28 36 a 56.8 56.8 0 0 1 -18.1 11.6 a 28.2 28.2 0 0 1 -23 -0.9 c -16.3 -8.3 -20.4 -29.5 -21 -47 c -0.5 -18.4 2.4 -43 9.3 -74 a 498.5 498.5 0 0 1 -20.8 55.5 c -3.9 8.5 -8.1 16.5 -12.6 23.1 a 47.4 47.4 0 0 1 -17.9 16.8 a 23 23 0 0 1 -14.9 1.8 a 26 26 0 0 1 -13.5 -8.2 a 63.5 63.5 0 0 1 -12.6 -27 c -3.5 -13.9 -6 -47.3 -7.6 -72.8 c -1.5 24.9 -4 57.9 -7.4 71.4 a 62.2 62.2 0 0 1 -12.6 26.7 c -3.5 3.8 -8 7 -13.6 8 c -5.5 1.2 -10.6 0.1 -14.7 -1.9 a 47.5 47.5 0 0 1 -17.6 -16.8 c -4.4 -6.5 -8.5 -14.5 -12.4 -23 a 421 421 0 0 1 -20.4 -53.6 c 6.2 35 7 58.3 5.6 78.2 c -0.7 10 -2.3 19.3 -5.4 27.2 a 36 36 0 0 1 -16.9 19.8 c -8.3 4 -16.6 2.9 -23.3 0.1 a 57.3 57.3 0 0 1 -17.7 -12.7 A 160.3 160.3 0 0 1 76 193.3 c 6 23.8 10 52.4 12.5 75.8 a 316 316 0 0 1 36.5 -6.3 c 34.1 -4.2 80.8 -6.7 132 -6.7 s 97.9 2.5 132 6.7 c 14 1.7 26.2 3.8 36 6.1 Z" stroke-linecap="round"/>
</g>
</g>
</g>
</svg>