<svg xmlns="http://www.w3.org/2000/svg" xmlns:xlink="http://www.w3.org/1999/xlink" version="1.1" width="1000" height="1000" viewBox="0 0 1000 1000" xml:space="preserve">
<desc>Created with Fabric.js 3.5.0</desc>
<defs>
</defs>

<g transform="matrix(-1.7756 0 0 -1.7756 499.9919 499.9919)" id="755546">
<g style="" vector-effect="non-scaling-stroke">
		<g transform="matrix(1 0 0 1 1.25 49.25)">
<path style="stroke: none; stroke-width: 1; stroke-dasharray: none; stroke-linecap: butt; stroke-dashoffset: 0; stroke-linejoin: miter; stroke-miterlimit: 4; is-custom-font: none; font-file-url: none; fill: rgb(0,23,60); fill-rule: nonzero; opacity: 1;" transform=" translate(-257.25, -305.25)" d="M 256.6 123.5 c -101.1 0 -183.4 74.9 -183.4 166.9 c 0 40.3 3 86.1 39.6 118.8 c 14 12.6 35.3 19.7 52.4 25.5 l 6.3 2 c 1 0.5 1.5 0.6 2.8 7.9 a 45 45 0 0 0 13.8 27.9 c 3.8 3.4 15.4 14 69 14.5 h 0.3 c 53.6 -0.5 65.2 -11 69 -14.5 a 44.8 44.8 0 0 0 13.8 -28 c 1.3 -7.2 1.8 -7.3 2.8 -7.7 l 6.3 -2.1 c 17.1 -5.8 38.5 -13 52.4 -25.5 c 36.5 -32.7 39.6 -78.5 39.6 -118.8 c 0 -92 -82.9 -166.9 -184.7 -166.9 Z" stroke-linecap="round"/>
</g>
		<g transform="matrix(1 0 0 1 0.3 48.8)">
<path style="stroke: none; stroke-width: 1; stroke-dasharray: none; stroke-linecap: butt; stroke-dashoffset: 0; stroke-linejoin: miter; stroke-miterlimit: 4; is-custom-font: none; font-file-url: none; fill: rgb(255,156,174); fill-rule: nonzero; opacity: 1;" transform=" translate(-256.3, -304.8)" d="M 388.4 396 c -10.6 9.5 -29.9 16 -45.3 21.2 l -6.8 2.2 c -15.4 5.3 -17.7 17.8 -19.2 26.1 c -1.1 6.3 -2.1 11.7 -7.1 16.3 c -1 0.8 -9.8 7.8 -53.7 8.2 c -43.8 -0.4 -52.7 -7.4 -53.6 -8.2 c -5 -4.6 -6 -10 -7.2 -16.3 c -1.5 -8.3 -3.8 -20.8 -19.2 -26 c -2 -0.8 -4.3 -1.6 -6.7 -2.3 c -15.5 -5.2 -34.8 -11.7 -45.3 -21.2 c -27.9 -24.9 -33.5 -59.3 -33.5 -106.7 c 0 -82.5 74 -149.7 164.8 -149.7 c 91.7 0 166.2 67.2 166.2 149.7 c 0 47.4 -5.6 81.8 -33.4 106.7 Z" stroke-linecap="round"/>
</g>
		<g transform="matrix(1 0 0 1 1.25 122.7728)">
<path style="stroke: none; stroke-width: 1; stroke-dasharray: none; stroke-linecap: butt; stroke-dashoffset: 0; stroke-linejoin: miter; stroke-miterlimit: 4; is-custom-font: none; font-file-url: none; fill: rgb(129,15,35); fill-rule: nonzero; opacity: 1;" transform=" translate(-257.25, -378.7728)" d="M 333.1 322.2 c -24.7 0 -43.3 16 -43.3 37.1 c 0 21.2 18.6 37.1 43.3 37.1 a 43 43 0 0 0 43.3 -41.6 c 0 -20.1 -16.6 -32.6 -43.3 -32.6 Z m -151.7 0 c -26.7 0 -43.3 12.5 -43.3 32.6 a 43 43 0 0 0 43.3 41.6 c 24.7 0 43.3 -16 43.3 -37 c 0 -21.3 -18.6 -37.2 -43.3 -37.2 Z m 75.2 50 c 5.7 -0.2 10.9 3.1 12.5 8 l 13.2 40.6 c 2 6 -1.8 12.2 -8.3 14 a 12.6 12.6 0 0 1 -14.3 -5.3 a 12.8 12.8 0 0 1 -13.2 5.6 c -6.7 -1.2 -11 -7 -9.8 -13.2 l 8.4 -40.5 a 12 12 0 0 1 11.5 -9.1 Z" stroke-linecap="round"/>
</g>
		<g transform="matrix(1 0 0 1 -0.5 -94.256)">
<path style="stroke: none; stroke-width: 1; stroke-dasharray: none; stroke-linecap: butt; stroke-dashoffset: 0; stroke-linejoin: miter; stroke-miterlimit: 4; is-custom-font: none; font-file-url: none; fill: rgb(0,23,60); fill-rule: nonzero; opacity: 1;" transform=" translate(-255.5, -161.7439)" d="M 293 61.5 c 0 14.1 -7.8 26.4 -19.3 32.8 c 5.3 158.2 40.5 92 65.3 14.7 a 37.4 37.4 0 0 1 25.5 -65 a 37.5 37.5 0 0 1 9.8 73.7 c -27.4 123.5 13 118.2 48.4 58.7 a 37.3 37.3 0 0 1 -5.7 -19.9 a 37.5 37.5 0 1 1 37.7 37.5 A 589 589 0 0 0 441 299.5 c 0 -12.5 -82.4 -22.6 -184 -22.6 S 73 287 73 299.5 c -1.6 -24.4 -6.5 -72 -15.6 -105.5 h -0.9 A 37.5 37.5 0 1 1 94 156.5 a 37.3 37.3 0 0 1 -5.8 20 c 33.7 63.3 73.6 71.8 51.3 -58.1 A 37.5 37.5 0 1 1 184 81.5 a 37.3 37.3 0 0 1 -9 24.3 c 24.3 77.1 59.2 145 64.7 -10.3 a 37.5 37.5 0 1 1 53.3 -34 Z" stroke-linecap="round"/>
</g>
		<g transform="matrix(1 0 0 1 -0.5 -99.95)">
<path style="stroke: none; stroke-width: 1; stroke-dasharray: none; stroke-linecap: butt; stroke-dashoffset: 0; stroke-linejoin: miter; stroke-miterlimit: 4; is-custom-font: none; font-file-url: none; fill: rgb(102,182,255); fill-rule: nonzero; opacity: 1;" transform=" translate(-255.5, -156.05)" d="M 255.5 80 a 18.5 18.5 0 1 0 0 -37 a 18.5 18.5 0 0 0 0 37 Z m 109 20 a 18.5 18.5 0 1 0 0 -37 a 18.5 18.5 0 0 0 0 37 Z m -308 75 a 18.5 18.5 0 1 0 0 -37 a 18.5 18.5 0 0 0 0 37 Z M 473 156.5 a 18.5 18.5 0 1 1 -37 0 a 18.5 18.5 0 0 1 37 0 Z M 146.5 100 a 18.5 18.5 0 1 0 0 -37 a 18.5 18.5 0 0 0 0 37 Z M 425 269 c 2.2 -25 6 -56 12.4 -80.6 a 158.4 158.4 0 0 1 -28 36 a 56.8 56.8 0 0 1 -18.1 11.6 a 28.2 28.2 0 0 1 -23 -0.9 c -16.3 -8.3 -20.4 -29.5 -21 -47 c -0.5 -18.4 2.4 -43 9.3 -74 a 498.5 498.5 0 0 1 -20.8 55.5 c -3.9 8.5 -8.1 16.5 -12.6 23.1 a 47.4 47.4 0 0 1 -17.9 16.8 a 23 23 0 0 1 -14.9 1.8 a 26 26 0 0 1 -13.5 -8.2 a 63.5 63.5 0 0 1 -12.6 -27 c -3.5 -13.9 -6 -47.3 -7.6 -72.8 c -1.5 24.9 -4 57.9 -7.4 71.4 a 62.2 62.2 0 0 1 -12.6 26.7 c -3.5 3.8 -8 7 -13.6 8 c -5.5 1.2 -10.6 0.1 -14.7 -1.9 a 47.5 47.5 0 0 1 -17.6 -16.8 c -4.4 -6.5 -8.5 -14.5 -12.4 -23 a 421 421 0 0 1 -20.4 -53.6 c 6.2 35 7 58.3 5.6 78.2 c -0.7 10 -2.3 19.3 -5.4 27.2 a 36 36 0 0 1 -16.9 19.8 c -8.3 4 -16.6 2.9 -23.3 0.1 a 57.3 57.3 0 0 1 -17.7 -12.7 A 160.3 160.3 0 0 1 76 193.3 c 6 23.8 10 52.4 12.5 75.8 a 316 316 0 0 1 36.5 -6.3 c 34.1 -4.2 80.8 -6.7 132 -6.7 s 97.9 2.5 132 6.7 c 14 1.7 26.2 3.8 36 6.1 Z" stroke-linecap="round"/>
</g>
</g>
</g>
</svg>