<svg xmlns="http://www.w3.org/2000/svg" xmlns:xlink="http://www.w3.org/1999/xlink" version="1.1" width="1000" height="1000" viewBox="0 0 1000 1000" xml:space="preserve">
<desc>Created with Fabric.js 3.5.0</desc>
<defs>
</defs>

<g transform="matrix(-11.2233 0 0 -11.2233 500.0018 500.0018)" id="710506">
<g style="" vector-effect="non-scaling-stroke">
		<g transform="matrix(1 0 0 1 0 0)">
<path style="stroke: none; stroke-width: 1; stroke-dasharray: none; stroke-linecap: butt; stroke-dashoffset: 0; stroke-linejoin: miter; stroke-miterlimit: 4; is-custom-font: none; font-file-url: none; fill: none; fill-rule: nonzero; opacity: 1;" transform=" translate(-40.5, -40.5)" d="M 0 0 h 81 v 81 H 0 z" stroke-linecap="round"/>
</g>
		<g transform="matrix(1 0 0 1 0 3.5)">
<path style="stroke: none; stroke-width: 1; stroke-dasharray: none; stroke-linecap: butt; stroke-dashoffset: 0; stroke-linejoin: miter; stroke-miterlimit: 4; is-custom-font: none; font-file-url: none; fill: rgb(1,1,1); fill-rule: nonzero; opacity: 1;" transform=" translate(-40.5, -44)" d="m 55.7 50.9 l 4 -34.9 l -19.2 33.2 L 21.3 16 l 4.1 34.9 L 7.9 30.8 L 18.8 72 h 43.4 l 10.9 -41.2 l -17.4 20.1 z m -15.2 16 l -3.6 -6.4 l 3.6 -6.4 l 3.6 6.4 l -3.6 6.4 z" stroke-linecap="round"/>
</g>
		<g transform="matrix(1 0 0 1 0 -12.3)">
<path style="stroke: none; stroke-width: 1; stroke-dasharray: none; stroke-linecap: butt; stroke-dashoffset: 0; stroke-linejoin: miter; stroke-miterlimit: 4; is-custom-font: none; font-file-url: none; fill: rgb(1,1,1); fill-rule: nonzero; opacity: 1;" transform=" translate(-40.5, -28.2)" d="m 40.5 11.7 l -5.6 23.5 l 5.6 9.5 l 5.6 -9.5 z" stroke-linecap="round"/>
</g>
		<g transform="matrix(1 0 0 1 0 -29.9)">
<circle style="stroke: none; stroke-width: 1; stroke-dasharray: none; stroke-linecap: butt; stroke-dashoffset: 0; stroke-linejoin: miter; stroke-miterlimit: 4; is-custom-font: none; font-file-url: none; fill: rgb(1,1,1); fill-rule: nonzero; opacity: 1;" cx="0" cy="0" r="5.4"/>
</g>
		<g transform="matrix(1 0 0 1 -1.4386 -31.462)">
<path style="stroke: none; stroke-width: 1; stroke-dasharray: none; stroke-linecap: butt; stroke-dashoffset: 0; stroke-linejoin: miter; stroke-miterlimit: 4; is-custom-font: none; font-file-url: none; fill: rgb(109,110,110); fill-rule: nonzero; opacity: 1;" transform=" translate(-39.0614, -9.0379)" d="M 41.6 7.2 c -0.8 -0.4 -1.7 -0.6 -2.6 -0.3 c -1.8 0.5 -2.9 2.4 -2.4 4.2 c 0 0.1 0 0.1 0.1 0.2 c 2.9 0.3 5.3 -2.8 4.9 -4.1 z" stroke-linecap="round"/>
</g>
		<g transform="matrix(1 0 0 1 19 -24.5)">
<circle style="stroke: none; stroke-width: 1; stroke-dasharray: none; stroke-linecap: butt; stroke-dashoffset: 0; stroke-linejoin: miter; stroke-miterlimit: 4; is-custom-font: none; font-file-url: none; fill: rgb(1,1,1); fill-rule: nonzero; opacity: 1;" cx="0" cy="0" r="5.4"/>
</g>
		<g transform="matrix(1 0 0 1 17.5614 -26.0674)">
<path style="stroke: none; stroke-width: 1; stroke-dasharray: none; stroke-linecap: butt; stroke-dashoffset: 0; stroke-linejoin: miter; stroke-miterlimit: 4; is-custom-font: none; font-file-url: none; fill: rgb(109,110,110); fill-rule: nonzero; opacity: 1;" transform=" translate(-58.0614, -14.4325)" d="M 60.6 12.6 c -0.8 -0.4 -1.7 -0.6 -2.6 -0.3 c -1.8 0.5 -2.9 2.4 -2.4 4.2 c 0 0.1 0 0.1 0.1 0.2 c 2.9 0.2 5.3 -2.8 4.9 -4.1 z" stroke-linecap="round"/>
</g>
		<g transform="matrix(1 0 0 1 -19 -24.5)">
<circle style="stroke: none; stroke-width: 1; stroke-dasharray: none; stroke-linecap: butt; stroke-dashoffset: 0; stroke-linejoin: miter; stroke-miterlimit: 4; is-custom-font: none; font-file-url: none; fill: rgb(1,1,1); fill-rule: nonzero; opacity: 1;" cx="0" cy="0" r="5.4"/>
</g>
		<g transform="matrix(1 0 0 1 -20.4386 -26.0674)">
<path style="stroke: none; stroke-width: 1; stroke-dasharray: none; stroke-linecap: butt; stroke-dashoffset: 0; stroke-linejoin: miter; stroke-miterlimit: 4; is-custom-font: none; font-file-url: none; fill: rgb(109,110,110); fill-rule: nonzero; opacity: 1;" transform=" translate(-20.0614, -14.4325)" d="M 22.6 12.6 c -0.8 -0.4 -1.7 -0.6 -2.6 -0.3 c -1.8 0.5 -2.9 2.4 -2.4 4.2 c 0 0.1 0 0.1 0.1 0.2 c 2.9 0.2 5.3 -2.8 4.9 -4.1 z" stroke-linecap="round"/>
</g>
		<g transform="matrix(1 0 0 1 32.6 -9.1)">
<circle style="stroke: none; stroke-width: 1; stroke-dasharray: none; stroke-linecap: butt; stroke-dashoffset: 0; stroke-linejoin: miter; stroke-miterlimit: 4; is-custom-font: none; font-file-url: none; fill: rgb(1,1,1); fill-rule: nonzero; opacity: 1;" cx="0" cy="0" r="5.4"/>
</g>
		<g transform="matrix(1 0 0 1 31.1614 -10.6674)">
<path style="stroke: none; stroke-width: 1; stroke-dasharray: none; stroke-linecap: butt; stroke-dashoffset: 0; stroke-linejoin: miter; stroke-miterlimit: 4; is-custom-font: none; font-file-url: none; fill: rgb(109,110,110); fill-rule: nonzero; opacity: 1;" transform=" translate(-71.6614, -29.8325)" d="M 74.2 28 c -0.8 -0.4 -1.7 -0.6 -2.6 -0.3 c -1.8 0.5 -2.9 2.4 -2.4 4.2 c 0 0.1 0 0.1 0.1 0.2 c 2.9 0.2 5.3 -2.8 4.9 -4.1 z" stroke-linecap="round"/>
</g>
		<g transform="matrix(1 0 0 1 -32.6 -9.1)">
<circle style="stroke: none; stroke-width: 1; stroke-dasharray: none; stroke-linecap: butt; stroke-dashoffset: 0; stroke-linejoin: miter; stroke-miterlimit: 4; is-custom-font: none; font-file-url: none; fill: rgb(1,1,1); fill-rule: nonzero; opacity: 1;" cx="0" cy="0" r="5.4"/>
</g>
		<g transform="matrix(1 0 0 1 -4.5605 3.6)">
<path style="stroke: none; stroke-width: 1; stroke-dasharray: none; stroke-linecap: butt; stroke-dashoffset: 0; stroke-linejoin: miter; stroke-miterlimit: 4; is-custom-font: none; font-file-url: none; fill: rgb(109,110,110); fill-rule: nonzero; opacity: 1;" transform=" translate(-35.9396, -44.1)" d="M 9 28 c -0.8 -0.4 -1.7 -0.6 -2.6 -0.3 c -1.8 0.4 -2.9 2.3 -2.4 4.1 c 0 0.1 0 0.1 0.1 0.2 c 2.9 0.3 5.3 -2.7 4.9 -4 z m 31.5 -7.1 l -3.1 13.4 l 3.1 5.3 z m 16.1 33.8 l 1.8 5.6 l 9.6 -22 z m -8.7 -4.2 l 8 -21.2 l -12.3 20.8 z m -14.6 0 L 25 29.1 L 28.1 51 z m -10.2 8.2 L 12.6 40.9 l 7.9 26.4 z" stroke-linecap="round"/>
</g>
</g>
</g>
</svg>