<svg xmlns="http://www.w3.org/2000/svg" xmlns:xlink="http://www.w3.org/1999/xlink" version="1.1" width="1000" height="1000" viewBox="0 0 1000 1000" xml:space="preserve">
<desc>Created with Fabric.js 3.5.0</desc>
<defs>
</defs>
<g transform="matrix(-11.2233 0 0 -11.2233 500.0018 500.0018)" id="460360">
<g style="" vector-effect="non-scaling-stroke">
		<g transform="matrix(1 0 0 1 0 0)">
<path style="stroke: none; stroke-width: 1; stroke-dasharray: none; stroke-linecap: butt; stroke-dashoffset: 0; stroke-linejoin: miter; stroke-miterlimit: 4; is-custom-font: none; font-file-url: none; fill: none; fill-rule: nonzero; opacity: 1;" transform=" translate(-40.5, -40.5)" d="M 0 0 h 81 v 81 H 0 z" stroke-linecap="round"/>
</g>
		<g transform="matrix(1 0 0 1 -18.6 -24)">
<circle style="stroke: none; stroke-width: 1; stroke-dasharray: none; stroke-linecap: butt; stroke-dashoffset: 0; stroke-linejoin: miter; stroke-miterlimit: 4; is-custom-font: none; font-file-url: none; fill: rgb(255,255,255); fill-rule: nonzero; opacity: 1;" cx="0" cy="0" r="5.2"/>
</g>
		<g transform="matrix(1 0 0 1 18.6 -23.9)">
<path style="stroke: none; stroke-width: 1; stroke-dasharray: none; stroke-linecap: butt; stroke-dashoffset: 0; stroke-linejoin: miter; stroke-miterlimit: 4; is-custom-font: none; font-file-url: none; fill: rgb(255,255,255); fill-rule: nonzero; opacity: 1;" transform=" translate(-59.1, -16.6)" d="M 59.1 21.8 c 2.9 0 5.2 -2.3 5.2 -5.2 s -2.3 -5.2 -5.2 -5.2 s -5.2 2.3 -5.2 5.2 s 2.3 5.2 5.2 5.2 z" stroke-linecap="round"/>
</g>
		<g transform="matrix(1 0 0 1 0.05 3.2)">
<path style="stroke: none; stroke-width: 1; stroke-dasharray: none; stroke-linecap: butt; stroke-dashoffset: 0; stroke-linejoin: miter; stroke-miterlimit: 4; is-custom-font: none; font-file-url: none; fill: rgb(255,255,255); fill-rule: nonzero; opacity: 1;" transform=" translate(-40.55, -43.7)" d="M 72.1 26.4 c -2.9 0 -5.2 2.3 -5.2 5.2 c 0 1.4 0.6 2.8 1.5 3.7 L 55.2 50.5 l 3.3 -28.7 l -2.1 -0.6 l -9.8 16.9 l -5.1 -21.7 h -2.2 l -5.1 21.7 l -9.8 -16.9 l -2.1 0.6 l 3.3 28.7 l -13 -15.2 c 0.9 -0.9 1.5 -2.3 1.5 -3.7 c 0 -2.9 -2.3 -5.2 -5.2 -5.2 s -5.2 2.3 -5.2 5.2 s 2.3 5.2 5.2 5.2 c 0.5 0 1 -0.1 1.5 -0.2 L 19.5 71 h 42.1 l 9.1 -34.4 c 0.5 0.1 1 0.2 1.5 0.2 c 2.9 0 5.2 -2.3 5.2 -5.2 s -2.4 -5.2 -5.3 -5.2 z" stroke-linecap="round"/>
</g>
		<g transform="matrix(1 0 0 1 0 -29.2)">
<circle style="stroke: none; stroke-width: 1; stroke-dasharray: none; stroke-linecap: butt; stroke-dashoffset: 0; stroke-linejoin: miter; stroke-miterlimit: 4; is-custom-font: none; font-file-url: none; fill: rgb(255,255,255); fill-rule: nonzero; opacity: 1;" cx="0" cy="0" r="5.2"/>
</g>
		<g transform="matrix(1 0 0 1 0.4727 -1.5)">
<path style="stroke: none; stroke-width: 1; stroke-dasharray: none; stroke-linecap: butt; stroke-dashoffset: 0; stroke-linejoin: miter; stroke-miterlimit: 4; is-custom-font: none; font-file-url: none; fill: rgb(207,206,207); fill-rule: nonzero; opacity: 1;" transform=" translate(-40.9726, -39)" d="m 41.4 20.3 l 5.3 17.9 l -5.3 7.3 z M 27.1 53.6 l -3.5 6.8 l -9.7 -22.1 z m 6.9 -3.1 l -9.2 -27.7 l 15.7 28.1 z m 14.2 0 l 9.3 -24.7 l -3.6 27.8 z m 4.7 19.9 l 15.6 -33.7 l 1.5 0.3 l -9.3 33.4 z m 20.4 -33.7 c 3.4 -0.9 3.9 -3.4 4 -6.7 c 0 -0.6 -0.9 -1.8 -1.3 -1.8 c -0.4 0.1 -0.8 0.1 -1.2 0.3 c 0.3 2.5 -1.3 5 -3.8 5.7 c -1.1 0.3 -2.1 0.2 -3.1 -0.1 c -0.6 1 3.9 3 5.4 2.6 z M 60 21.3 c 3.4 -0.9 3.9 -3.4 4 -6.7 c 0 -0.6 -0.9 -1.8 -1.3 -1.8 c -0.4 0.1 -0.8 0.1 -1.2 0.3 c 0.3 2.5 -1.3 5 -3.8 5.7 c -1.1 0.3 -2.1 0.2 -3.1 -0.1 c -0.6 1 3.9 3 5.4 2.6 z M 10.1 36.7 c 3.4 -0.9 3.9 -3.4 4 -6.7 c 0 -0.6 -0.9 -1.8 -1.3 -1.8 c -0.4 0.1 -0.8 0.1 -1.2 0.3 c 0.3 2.5 -1.3 5 -3.8 5.7 c -1.1 0.3 -2.1 0.2 -3.1 -0.1 c -0.6 1 3.9 3 5.4 2.6 z m 13 -15.4 c 3.4 -0.9 3.9 -3.4 4 -6.7 c 0 -0.6 -0.9 -1.8 -1.3 -1.8 c -0.4 0.1 -0.8 0.1 -1.2 0.3 c 0.3 2.5 -1.3 5 -3.8 5.7 c -1.1 0.3 -2.1 0.2 -3.1 -0.1 c -0.6 1 3.9 3 5.4 2.6 z m 18.5 -5.2 c 3.4 -0.9 3.9 -3.4 4 -6.7 c 0 -0.6 -0.9 -1.8 -1.3 -1.8 c -0.4 0.1 -0.8 0.1 -1.2 0.3 c 0.3 2.5 -1.3 5 -3.8 5.7 c -1.1 0.3 -2.1 0.2 -3.1 -0.1 c -0.6 1.1 3.9 3 5.4 2.6 z" stroke-linecap="round"/>
</g>
		<g transform="matrix(1 0 0 1 0 19.35)">
<path style="stroke: none; stroke-width: 1; stroke-dasharray: none; stroke-linecap: butt; stroke-dashoffset: 0; stroke-linejoin: miter; stroke-miterlimit: 4; is-custom-font: none; font-file-url: none; fill: rgb(35,31,32); fill-rule: nonzero; opacity: 1;" transform=" translate(-40.5, -59.85)" d="m 40.5 65.7 l -3.9 -5.9 l 3.9 -5.8 l 3.9 5.8 z" stroke-linecap="round"/>
</g>
		<g transform="matrix(1 0 0 1 -18.6 -24)">
<circle style="stroke: none; stroke-width: 1; stroke-dasharray: none; stroke-linecap: butt; stroke-dashoffset: 0; stroke-linejoin: miter; stroke-miterlimit: 4; is-custom-font: none; font-file-url: none; fill: rgb(255,255,255); fill-rule: nonzero; opacity: 1;" cx="0" cy="0" r="5.2"/>
</g>
		<g transform="matrix(1 0 0 1 18.6 -23.9)">
<path style="stroke: none; stroke-width: 1; stroke-dasharray: none; stroke-linecap: butt; stroke-dashoffset: 0; stroke-linejoin: miter; stroke-miterlimit: 4; is-custom-font: none; font-file-url: none; fill: rgb(255,255,255); fill-rule: nonzero; opacity: 1;" transform=" translate(-59.1, -16.6)" d="M 59.1 21.8 c 2.9 0 5.2 -2.3 5.2 -5.2 s -2.3 -5.2 -5.2 -5.2 s -5.2 2.3 -5.2 5.2 s 2.3 5.2 5.2 5.2 z" stroke-linecap="round"/>
</g>
		<g transform="matrix(1 0 0 1 0.05 3.2)">
<path style="stroke: none; stroke-width: 1; stroke-dasharray: none; stroke-linecap: butt; stroke-dashoffset: 0; stroke-linejoin: miter; stroke-miterlimit: 4; is-custom-font: none; font-file-url: none; fill: rgb(255,255,255); fill-rule: nonzero; opacity: 1;" transform=" translate(-40.55, -43.7)" d="M 72.1 26.4 c -2.9 0 -5.2 2.3 -5.2 5.2 c 0 1.4 0.6 2.8 1.5 3.7 L 55.2 50.5 l 3.3 -28.7 l -2.1 -0.6 l -9.8 16.9 l -5.1 -21.7 h -2.2 l -5.1 21.7 l -9.8 -16.9 l -2.1 0.6 l 3.3 28.7 l -13 -15.2 c 0.9 -0.9 1.5 -2.3 1.5 -3.7 c 0 -2.9 -2.3 -5.2 -5.2 -5.2 s -5.2 2.3 -5.2 5.2 s 2.3 5.2 5.2 5.2 c 0.5 0 1 -0.1 1.5 -0.2 L 19.5 71 h 42.1 l 9.1 -34.4 c 0.5 0.1 1 0.2 1.5 0.2 c 2.9 0 5.2 -2.3 5.2 -5.2 s -2.4 -5.2 -5.3 -5.2 z" stroke-linecap="round"/>
</g>
		<g transform="matrix(1 0 0 1 0 -29.2)">
<circle style="stroke: none; stroke-width: 1; stroke-dasharray: none; stroke-linecap: butt; stroke-dashoffset: 0; stroke-linejoin: miter; stroke-miterlimit: 4; is-custom-font: none; font-file-url: none; fill: rgb(255,255,255); fill-rule: nonzero; opacity: 1;" cx="0" cy="0" r="5.2"/>
</g>
		<g transform="matrix(1 0 0 1 0.4727 -1.5)">
<path style="stroke: none; stroke-width: 1; stroke-dasharray: none; stroke-linecap: butt; stroke-dashoffset: 0; stroke-linejoin: miter; stroke-miterlimit: 4; is-custom-font: none; font-file-url: none; fill: rgb(207,206,207); fill-rule: nonzero; opacity: 1;" transform=" translate(-40.9726, -39)" d="m 41.4 20.3 l 5.3 17.9 l -5.3 7.3 z M 27.1 53.6 l -3.5 6.8 l -9.7 -22.1 z m 6.9 -3.1 l -9.2 -27.7 l 15.7 28.1 z m 14.2 0 l 9.3 -24.7 l -3.6 27.8 z m -6.1 19.9 C 62 65.7 68.5 36.7 68.5 36.7 l 1.5 0.3 l -9.3 33.4 H 42.1 z M 73.3 36.7 c 3.4 -0.9 3.9 -3.4 4 -6.7 c 0 -0.6 -0.9 -1.8 -1.3 -1.8 c -0.4 0.1 -0.8 0.1 -1.2 0.3 c 0.3 2.5 -1.3 5 -3.8 5.7 c -1.1 0.3 -2.1 0.2 -3.1 -0.1 c -0.6 1 3.9 3 5.4 2.6 z M 60 21.3 c 3.4 -0.9 3.9 -3.4 4 -6.7 c 0 -0.6 -0.9 -1.8 -1.3 -1.8 c -0.4 0.1 -0.8 0.1 -1.2 0.3 c 0.3 2.5 -1.3 5 -3.8 5.7 c -1.1 0.3 -2.1 0.2 -3.1 -0.1 c -0.6 1 3.9 3 5.4 2.6 z M 10.1 36.7 c 3.4 -0.9 3.9 -3.4 4 -6.7 c 0 -0.6 -0.9 -1.8 -1.3 -1.8 c -0.4 0.1 -0.8 0.1 -1.2 0.3 c 0.3 2.5 -1.3 5 -3.8 5.7 c -1.1 0.3 -2.1 0.2 -3.1 -0.1 c -0.6 1 3.9 3 5.4 2.6 z m 13 -15.4 c 3.4 -0.9 3.9 -3.4 4 -6.7 c 0 -0.6 -0.9 -1.8 -1.3 -1.8 c -0.4 0.1 -0.8 0.1 -1.2 0.3 c 0.3 2.5 -1.3 5 -3.8 5.7 c -1.1 0.3 -2.1 0.2 -3.1 -0.1 c -0.6 1 3.9 3 5.4 2.6 z m 18.5 -5.2 c 3.4 -0.9 3.9 -3.4 4 -6.7 c 0 -0.6 -0.9 -1.8 -1.3 -1.8 c -0.4 0.1 -0.8 0.1 -1.2 0.3 c 0.3 2.5 -1.3 5 -3.8 5.7 c -1.1 0.3 -2.1 0.2 -3.1 -0.1 c -0.6 1.1 3.9 3 5.4 2.6 z" stroke-linecap="round"/>
</g>
		<g transform="matrix(1 0 0 1 0 19.35)">
<path style="stroke: none; stroke-width: 1; stroke-dasharray: none; stroke-linecap: butt; stroke-dashoffset: 0; stroke-linejoin: miter; stroke-miterlimit: 4; is-custom-font: none; font-file-url: none; fill: rgb(0,0,0); fill-rule: nonzero; opacity: 1;" transform=" translate(-40.5, -59.85)" d="m 40.5 65.7 l -3.9 -5.9 l 3.9 -5.8 l 3.9 5.8 z" stroke-linecap="round"/>
</g>
		<g transform="matrix(1 0 0 1 -0.1987 -1.95)">
<path style="stroke: none; stroke-width: 1; stroke-dasharray: none; stroke-linecap: butt; stroke-dashoffset: 0; stroke-linejoin: miter; stroke-miterlimit: 4; is-custom-font: none; font-file-url: none; fill: rgb(0,0,0); fill-rule: nonzero; opacity: 1;" transform=" translate(-40.3013, -38.55)" d="M 72.1 25.1 c -3.6 0 -6.4 2.9 -6.4 6.5 c 0 1.3 0.4 2.6 1.1 3.7 l -10.5 13 l 3.4 -25.4 c 3.3 -0.3 5.9 -3.1 5.9 -6.4 c 0 -3.6 -2.9 -6.5 -6.5 -6.5 s -6.5 2.9 -6.5 6.5 c 0 1.9 0.8 3.7 2.3 5 l -7.8 13.4 L 43 17.3 c 2.3 -1 3.9 -3.4 3.9 -6 c 0 -3.6 -2.9 -6.4 -6.4 -6.4 c -3.6 0 -6.5 2.9 -6.5 6.4 c 0 2.6 1.5 4.9 3.9 6 l -4.1 17.6 L 26 21.5 c 1.5 -1.2 2.3 -3.1 2.3 -5 c 0 -3.6 -2.9 -6.5 -6.5 -6.5 s -6.5 2.9 -6.5 6.5 c 0 3.3 2.6 6.1 5.9 6.4 l 3.4 25.4 l -10.4 -13 c 0.7 -1 1.1 -2.3 1.1 -3.7 c 0 -3.6 -2.9 -6.5 -6.5 -6.5 S 2.4 28 2.4 31.6 S 5.3 38 8.8 38 h 0.5 l 9 34 v 0.2 h 44 l 9 -34.2 h 0.5 c 3.6 0 6.4 -2.9 6.4 -6.4 c 0.1 -3.6 -2.6 -6.5 -6.1 -6.5 z m -59 6.5 c 0 2.3 -1.9 4.1 -4.2 4.1 s -4.1 -1.8 -4.1 -4.1 s 1.9 -4.2 4.1 -4.2 c 2.3 0 4.2 1.9 4.2 4.2 z m 8.8 -10.8 c -2.3 0 -4.1 -1.9 -4.1 -4.2 s 1.9 -4.2 4.1 -4.2 c 2.3 0 4.2 1.9 4.2 4.2 c 0 2.2 -1.9 4.2 -4.2 4.2 z M 55 16.5 c 0 -2.3 1.9 -4.2 4.1 -4.2 c 2.3 0 4.2 1.9 4.2 4.2 s -1.9 4.2 -4.2 4.2 c -2.3 0.1 -4.1 -1.8 -4.1 -4.2 z M 20.4 69.8 l -8.6 -32.4 c 0.1 -0.1 0.2 -0.1 0.3 -0.1 s 0.2 -0.1 0.3 -0.1 l 15.1 17.3 l -3.7 -31.6 h 0.1 L 40.3 51 l 0.2 0.4 l 16.6 -28.7 h 0.1 l -3.7 31.6 L 68.6 37 l 0.6 0.3 l -8.6 32.5 H 20.4 z m 55.9 -38.2 c 0 2.3 -1.9 4.1 -4.2 4.1 c -2.3 0 -4.1 -1.8 -4.1 -4.1 s 1.9 -4.2 4.1 -4.2 c 2.3 0 4.2 1.9 4.2 4.2 z M 40.5 46.3 L 35.7 38 l 4.7 -20.2 h 0.3 L 45.3 38 l -4.8 8.3 z m 0 -30.8 c -2.3 0 -4.2 -1.9 -4.2 -4.2 s 1.9 -4.1 4.2 -4.1 s 4.2 1.9 4.2 4.1 c 0.1 2.3 -1.9 4.2 -4.2 4.2 z" stroke-linecap="round"/>
</g>
</g>
</g>
</svg>